name rise44.9368peak50.754fall52.0217.mot
datacolumns 19
datarows 32
range 5.47665000000000 5.52832000000000
endheader
time	ground_force1_vx	ground_force1_vy	ground_force1_vz	ground_force1_px	ground_force1_py	ground_force1_pz	ground_force2_vx	ground_force2_vy	ground_force2_vz	ground_force2_px	ground_force2_py	ground_force2_pz	ground_torque1_x	ground_torque1_y	ground_torque1_z	ground_torque2_x	ground_torque2_y	ground_torque2_z	
5.47665000000000	-11.54791400000000	43.33517200000000	-13.28573700000000	0.40658200000000	0.00000000000000	0.04268600000000	-58.40351200000000	802.03190400000005	-56.03635600000000	0.16881400000000	0.00000000000000	-0.13190700000000	0.00000000000000	-11.32885200000000	0.00000000000000	0.00000000000000	-30.98446300000000	0.00000000000000	
5.47831500000000	-12.53081500000000	49.26573000000000	-14.63423800000000	0.40809300000000	0.00000000000000	0.04371000000000	-58.87939500000000	799.77294700000004	-55.71738100000000	0.16826900000000	0.00000000000000	-0.13187500000000	0.00000000000000	-12.49621100000000	0.00000000000000	0.00000000000000	-30.93169500000000	0.00000000000000	
5.47998200000000	-13.32716200000000	55.07585700000000	-15.82193600000000	0.40944800000000	0.00000000000000	0.04469100000000	-59.35739200000000	797.36838299999999	-55.37502400000000	0.16772400000000	0.00000000000000	-0.13184000000000	0.00000000000000	-13.52962600000000	0.00000000000000	0.00000000000000	-30.87646500000000	0.00000000000000	
5.48164600000000	-13.91992100000000	60.70746400000000	-16.82881300000000	0.41067800000000	0.00000000000000	0.04563200000000	-59.83770600000000	794.81673200000000	-55.00902800000000	0.16717700000000	0.00000000000000	-0.13180300000000	0.00000000000000	-14.41228100000000	0.00000000000000	0.00000000000000	-30.81882200000000	0.00000000000000	
5.48331500000000	-14.30250700000000	66.12818400000000	-17.64549000000000	0.41180800000000	0.00000000000000	0.04653500000000	-60.32049100000000	792.11659599999996	-54.61916500000000	0.16662800000000	0.00000000000000	-0.13176200000000	0.00000000000000	-15.13649700000000	0.00000000000000	0.00000000000000	-30.75880800000000	0.00000000000000	
5.48498000000000	-14.47788700000000	71.33042399999999	-18.27245900000000	0.41285900000000	0.00000000000000	0.04740300000000	-60.80584900000000	789.26666000000000	-54.20523800000000	0.16607800000000	0.00000000000000	-0.13171800000000	0.00000000000000	-15.70304300000000	0.00000000000000	0.00000000000000	-30.69645200000000	0.00000000000000	
5.48665300000000	-14.45704200000000	76.32852900000000	-18.71864000000000	0.41384800000000	0.00000000000000	0.04823900000000	-61.29382300000000	786.26568799999995	-53.76708400000000	0.16552600000000	0.00000000000000	-0.13167000000000	0.00000000000000	-16.11987900000000	0.00000000000000	0.00000000000000	-30.63177300000000	0.00000000000000	
5.48831700000000	-14.25704900000000	81.15463099999999	-18.99948500000000	0.41478900000000	0.00000000000000	0.04904300000000	-61.78440000000000	783.11252600000000	-53.30457600000000	0.16497300000000	0.00000000000000	-0.13162000000000	0.00000000000000	-16.40051300000000	0.00000000000000	0.00000000000000	-30.56478000000000	0.00000000000000	
5.48998100000000	-13.89898200000000	85.85374500000000	-19.13488200000000	0.41569400000000	0.00000000000000	0.04981900000000	-62.27750600000000	779.80610700000000	-52.81762100000000	0.16441900000000	0.00000000000000	-0.13156500000000	0.00000000000000	-16.56219400000000	0.00000000000000	0.00000000000000	-30.49546800000000	0.00000000000000	
5.49165100000000	-13.40584900000000	90.47865600000000	-19.14705700000000	0.41657300000000	0.00000000000000	0.05056700000000	-62.77299900000000	776.34544100000005	-52.30616800000000	0.16386400000000	0.00000000000000	-0.13150700000000	0.00000000000000	-16.62411200000000	0.00000000000000	0.00000000000000	-30.42382100000000	0.00000000000000	
5.49331500000000	-12.80073500000000	95.08504300000000	-19.05864300000000	0.41743300000000	0.00000000000000	0.05128900000000	-63.27067500000000	772.72962600000005	-51.77020400000000	0.16330900000000	0.00000000000000	-0.13144500000000	0.00000000000000	-16.60575300000000	0.00000000000000	0.00000000000000	-30.34980900000000	0.00000000000000	
5.49498700000000	-12.10524000000000	99.72719200000000	-18.89105000000000	0.41828200000000	0.00000000000000	0.05198500000000	-63.77025900000000	768.95784300000003	-51.20975800000000	0.16275300000000	0.00000000000000	-0.13137800000000	0.00000000000000	-16.52550200000000	0.00000000000000	0.00000000000000	-30.27338900000000	0.00000000000000	
5.49664900000000	-11.33831000000000	104.45452800000000	-18.66320400000000	0.41912400000000	0.00000000000000	0.05265800000000	-64.27140500000000	765.02935500000001	-50.62490400000000	0.16219700000000	0.00000000000000	-0.13130800000000	0.00000000000000	-16.39957400000000	0.00000000000000	0.00000000000000	-30.19450400000000	0.00000000000000	
5.49831400000000	-10.51546400000000	109.30909600000000	-18.39069600000000	0.41996200000000	0.00000000000000	0.05330900000000	-64.77369400000001	760.94351400000005	-50.01575700000000	0.16164100000000	0.00000000000000	-0.13123300000000	0.00000000000000	-16.24129600000000	0.00000000000000	0.00000000000000	-30.11308300000000	0.00000000000000	
5.49998500000000	-9.64841300000000	114.32401400000001	-18.08532300000000	0.42080000000000	0.00000000000000	0.05393700000000	-65.27663500000000	756.69975299999999	-49.38248200000000	0.16108500000000	0.00000000000000	-0.13115300000000	0.00000000000000	-16.06072000000000	0.00000000000000	0.00000000000000	-30.02904000000000	0.00000000000000	
5.50164900000000	-8.74503600000000	119.52282700000001	-17.75499500000000	0.42164000000000	0.00000000000000	0.05454400000000	-65.77965900000000	752.29759400000000	-48.72529000000000	0.16053100000000	0.00000000000000	-0.13106900000000	0.00000000000000	-15.86454800000000	0.00000000000000	0.00000000000000	-29.94227600000000	0.00000000000000	
5.50331900000000	-7.80963800000000	124.91967699999999	-17.40395500000000	0.42248300000000	0.00000000000000	0.05513100000000	-66.28212400000000	747.73664499999995	-48.04444000000000	0.15997800000000	0.00000000000000	-0.13098000000000	0.00000000000000	-15.65632200000000	0.00000000000000	0.00000000000000	-29.85267500000000	0.00000000000000	
5.50498800000000	-6.84342900000000	130.52009200000001	-17.03321300000000	0.42332900000000	0.00000000000000	0.05569800000000	-66.78330800000001	743.01660100000004	-47.34024000000000	0.15942600000000	0.00000000000000	-0.13088700000000	0.00000000000000	-15.43680100000000	0.00000000000000	0.00000000000000	-29.76010800000000	0.00000000000000	
5.50665200000000	-5.84514700000000	136.32224400000001	-16.64115700000000	0.42417800000000	0.00000000000000	0.05624700000000	-67.28241199999999	738.13724500000001	-46.61305200000000	0.15887600000000	0.00000000000000	-0.13078800000000	0.00000000000000	-15.20447900000000	0.00000000000000	0.00000000000000	-29.66442800000000	0.00000000000000	
5.50831900000000	-4.81174400000000	142.31848600000001	-16.22423400000000	0.42503000000000	0.00000000000000	0.05677700000000	-67.77856199999999	733.09845399999995	-45.86328400000000	0.15832900000000	0.00000000000000	-0.13068500000000	0.00000000000000	-14.95617100000000	0.00000000000000	0.00000000000000	-29.56547700000000	0.00000000000000	
5.50998300000000	-3.73908500000000	148.49700600000000	-15.77765300000000	0.42588500000000	0.00000000000000	0.05728900000000	-68.27080500000000	727.90019500000005	-45.09140000000000	0.15778400000000	0.00000000000000	-0.13057600000000	0.00000000000000	-14.68761100000000	0.00000000000000	0.00000000000000	-29.46308100000000	0.00000000000000	
5.51164900000000	-2.62259300000000	154.84344300000001	-15.29605200000000	0.42674100000000	0.00000000000000	0.05778400000000	-68.75811200000000	722.54253100000005	-44.29791400000000	0.15724200000000	0.00000000000000	-0.13046200000000	0.00000000000000	-14.39402000000000	0.00000000000000	0.00000000000000	-29.35704900000000	0.00000000000000	
5.51331700000000	-1.45781000000000	161.34236300000001	-14.77407700000000	0.42759600000000	0.00000000000000	0.05826200000000	-69.23938200000001	717.02562399999999	-43.48339300000000	0.15670400000000	0.00000000000000	-0.13034200000000	0.00000000000000	-14.07061100000000	0.00000000000000	0.00000000000000	-29.24718000000000	0.00000000000000	
5.51498600000000	-0.24085400000000	167.97851700000001	-14.20686500000000	0.42844800000000	0.00000000000000	0.05872400000000	-69.71343700000000	711.34974000000000	-42.64845500000000	0.15616900000000	0.00000000000000	-0.13021800000000	0.00000000000000	-13.71299400000000	0.00000000000000	0.00000000000000	-29.13325700000000	0.00000000000000	
5.51665200000000	1.03126200000000	174.73781099999999	-13.59039400000000	0.42929700000000	0.00000000000000	0.05917000000000	-70.17903000000000	705.51525000000004	-41.79377200000000	0.15563800000000	0.00000000000000	-0.13008700000000	0.00000000000000	-13.31748200000000	0.00000000000000	0.00000000000000	-29.01505000000000	0.00000000000000	
5.51831800000000	2.36042200000000	181.60799299999999	-12.92171600000000	0.43013900000000	0.00000000000000	0.05960100000000	-70.63484500000000	699.52263900000003	-40.92006600000000	0.15511100000000	0.00000000000000	-0.12995100000000	0.00000000000000	-12.88129300000000	0.00000000000000	0.00000000000000	-28.89231800000000	0.00000000000000	
5.51998000000000	3.74731400000000	188.57905000000000	-12.19906500000000	0.43097400000000	0.00000000000000	0.06001600000000	-71.07950000000000	693.37251100000003	-40.02810800000000	0.15458800000000	0.00000000000000	-0.12981000000000	0.00000000000000	-12.40265000000000	0.00000000000000	0.00000000000000	-28.76480600000000	0.00000000000000	
5.52165400000000	5.19144800000000	195.64335299999999	-11.42187500000000	0.43179700000000	0.00000000000000	0.06041600000000	-71.51154699999999	687.06559700000003	-39.11872000000000	0.15407100000000	0.00000000000000	-0.12966300000000	0.00000000000000	-11.88079400000000	0.00000000000000	0.00000000000000	-28.63225000000000	0.00000000000000	
5.52331300000000	6.69123700000000	202.79557399999999	-10.59069700000000	0.43260800000000	0.00000000000000	0.06080300000000	-71.92948400000000	680.60275799999999	-38.19277200000000	0.15355700000000	0.00000000000000	-0.12951000000000	0.00000000000000	-11.31592000000000	0.00000000000000	0.00000000000000	-28.49437600000000	0.00000000000000	
5.52498600000000	8.24414700000000	210.03244699999999	-9.70707000000000	0.43340300000000	0.00000000000000	0.06117500000000	-72.33174800000000	673.98499700000002	-37.25118100000000	0.15304900000000	0.00000000000000	-0.12935100000000	0.00000000000000	-10.70907400000000	0.00000000000000	0.00000000000000	-28.35089900000000	0.00000000000000	
5.52664700000000	9.84687500000000	217.35240099999999	-8.77334500000000	0.43418100000000	0.00000000000000	0.06153300000000	-72.71672599999999	667.21346300000005	-36.29490800000000	0.15254600000000	0.00000000000000	-0.12918700000000	0.00000000000000	-10.06199800000000	0.00000000000000	0.00000000000000	-28.20152800000000	0.00000000000000	
5.52832000000000	11.49554900000000	224.75514200000001	-7.79249000000000	0.43493900000000	0.00000000000000	0.06187800000000	-73.08275999999999	660.28945899999997	-35.32495700000000	0.15204900000000	0.00000000000000	-0.12901700000000	0.00000000000000	-9.37697400000000	0.00000000000000	0.00000000000000	-28.04596300000000	0.00000000000000	
